# xmcd
#
# Track frame offsets:
#	150
#	11617
#	27857
#	41668
#	54124
#	67913
#	81753
#	95863
#	110157
#	121767
#	136814
#	149279
#	164826
#	182446
#	195304
#	204054
#	217264
#	226711
#
# Disc length: 3314 seconds
#
# Revision: 0
# Processed by: cddbd v1.4PL0 Copyright (c) Steve Scherf et al.
# Submitted via: dBpowerAMP V4.0
#
DISCID=f00cf012
DTITLE=Tonico and Tinoco - Seleção de ouro
DYEAR=1900
DGENRE=Country
TTITLE0=Cana Verde
TTITLE1=Pé de Ipê
TTITLE2=Chico Mineiro
TTITLE3=Mourão da porteira
TTITLE4=Velho Candieiro
TTITLE5=Moreninha linda
TTITLE6=A saudade vai
TTITLE7=Couro de Boi
TTITLE8=Cavalo preto
TTITLE9=Sertão do laranjinha
TTITLE10=Velhas cartas
TTITLE11=Ferreirinha
TTITLE12=Cabocla Tereza
TTITLE13=Rio pequeno
TTITLE14=Festa na roça
TTITLE15=Tristeza do jeca
TTITLE16=Ciriema
TTITLE17=Coração do Brasil
EXTD=
EXTT0=
EXTT1=
EXTT2=
EXTT3=
EXTT4=
EXTT5=
EXTT6=
EXTT7=
EXTT8=
EXTT9=
EXTT10=
EXTT11=
EXTT12=
EXTT13=
EXTT14=
EXTT15=
EXTT16=
EXTT17=
PLAYORDER=
